# Blender 4.4.3
# www.blender.org
mtllib spear.mtl
o Cylinder
v 0.000000 -2.560510 -0.054033
v 0.000000 -0.180639 -0.054033
v 0.009982 -2.560510 -0.052995
v 0.009982 -0.180639 -0.052995
v 0.019581 -2.560510 -0.049920
v 0.019581 -0.180639 -0.049920
v 0.028427 -2.560510 -0.044927
v 0.028427 -0.180639 -0.044927
v 0.036181 -2.560510 -0.038207
v 0.036181 -0.180639 -0.038207
v 0.042544 -2.560510 -0.030019
v 0.042544 -0.180639 -0.030019
v 0.047273 -2.560510 -0.020678
v 0.047273 -0.180639 -0.020678
v 0.050185 -2.560510 -0.010541
v 0.050185 -0.180639 -0.010541
v 0.051168 -2.560510 -0.000000
v 0.051168 -0.180639 -0.000000
v 0.050185 -2.560510 0.010541
v 0.050185 -0.180639 0.010541
v 0.047273 -2.560510 0.020678
v 0.047273 -0.180639 0.020678
v 0.042544 -2.560510 0.030019
v 0.042544 -0.180639 0.030019
v 0.036181 -2.560510 0.038207
v 0.036181 -0.180639 0.038207
v 0.028427 -2.560510 0.044927
v 0.028427 -0.180639 0.044927
v 0.019581 -2.560510 0.049920
v 0.019581 -0.180639 0.049920
v 0.009982 -2.560510 0.052995
v 0.009982 -0.180639 0.052995
v 0.000000 -2.560510 0.054033
v 0.000000 -0.180639 0.054033
v -0.009982 -2.560510 0.052995
v -0.009982 -0.180639 0.052995
v -0.019581 -2.560510 0.049920
v -0.019581 -0.180639 0.049920
v -0.028427 -2.560510 0.044927
v -0.028427 -0.180639 0.044927
v -0.036181 -2.560510 0.038207
v -0.036181 -0.180639 0.038207
v -0.042544 -2.560510 0.030019
v -0.042544 -0.180639 0.030019
v -0.047273 -2.560510 0.020678
v -0.047273 -0.180639 0.020678
v -0.050184 -2.560510 0.010541
v -0.050184 -0.180639 0.010541
v -0.051168 -2.560510 -0.000000
v -0.051168 -0.180639 -0.000000
v -0.050184 -2.560510 -0.010541
v -0.050184 -0.180639 -0.010541
v -0.047273 -2.560510 -0.020678
v -0.047273 -0.180639 -0.020678
v -0.042544 -2.560510 -0.030019
v -0.042544 -0.180639 -0.030019
v -0.036181 -2.560510 -0.038207
v -0.036181 -0.180639 -0.038207
v -0.028427 -2.560510 -0.044927
v -0.028427 -0.180639 -0.044927
v -0.019581 -2.560510 -0.049920
v -0.019581 -0.180639 -0.049920
v -0.009982 -2.560510 -0.052995
v -0.009982 -0.180639 -0.052995
v 0.000000 0.320854 -0.000000
vn 0.1034 -0.0000 -0.9946
vn 0.3051 -0.0000 -0.9523
vn 0.4915 -0.0000 -0.8709
vn 0.6549 -0.0000 -0.7557
vn 0.7896 -0.0000 -0.6136
vn 0.8922 -0.0000 -0.4517
vn 0.9611 -0.0000 -0.2761
vn 0.9957 -0.0000 -0.0929
vn 0.9957 -0.0000 0.0929
vn 0.9611 -0.0000 0.2761
vn 0.8922 -0.0000 0.4517
vn 0.7896 -0.0000 0.6136
vn 0.6549 -0.0000 0.7557
vn 0.4915 -0.0000 0.8709
vn 0.3051 -0.0000 0.9523
vn 0.1034 -0.0000 0.9946
vn -0.1034 -0.0000 0.9946
vn -0.3051 -0.0000 0.9523
vn -0.4915 -0.0000 0.8709
vn -0.6549 -0.0000 0.7557
vn -0.7896 -0.0000 0.6136
vn -0.8922 -0.0000 0.4517
vn -0.9612 -0.0000 0.2760
vn -0.9957 -0.0000 0.0929
vn -0.9957 -0.0000 -0.0929
vn -0.9612 -0.0000 -0.2760
vn -0.8922 -0.0000 -0.4517
vn -0.7896 -0.0000 -0.6136
vn -0.6549 -0.0000 -0.7557
vn -0.4915 -0.0000 -0.8709
vn -0.3051 -0.0000 -0.9523
vn -0.1034 -0.0000 -0.9946
vn -0.0000 -1.0000 -0.0000
vn 0.1028 0.1066 -0.9890
vn 0.3034 0.1061 -0.9470
vn 0.4888 0.1053 -0.8660
vn 0.6514 0.1043 -0.7516
vn 0.7854 0.1032 -0.6103
vn 0.8875 0.1022 -0.4493
vn 0.9562 0.1015 -0.2747
vn 0.9906 0.1011 -0.0924
vn 0.9906 0.1011 0.0924
vn 0.9562 0.1015 0.2747
vn 0.8875 0.1022 0.4493
vn 0.7854 0.1032 0.6103
vn 0.6514 0.1043 0.7516
vn 0.4888 0.1053 0.8660
vn 0.3034 0.1061 0.9470
vn 0.1028 0.1066 0.9890
vn -0.1028 0.1066 0.9890
vn -0.3034 0.1061 0.9470
vn -0.4888 0.1053 0.8660
vn -0.6514 0.1043 0.7516
vn -0.7854 0.1032 0.6103
vn -0.8875 0.1022 0.4493
vn -0.9562 0.1015 0.2746
vn -0.9906 0.1011 0.0925
vn -0.9906 0.1011 -0.0925
vn -0.9562 0.1015 -0.2746
vn -0.8875 0.1022 -0.4493
vn -0.7854 0.1032 -0.6103
vn -0.6514 0.1043 -0.7516
vn -0.4888 0.1053 -0.8660
vn -0.3034 0.1061 -0.9470
vn -0.1028 0.1066 -0.9890
vt 1.000000 1.000000
vt 0.968750 0.500000
vt 1.000000 0.500000
vt 0.968750 1.000000
vt 0.937500 0.500000
vt 0.937500 1.000000
vt 0.906250 0.500000
vt 0.906250 1.000000
vt 0.875000 0.500000
vt 0.875000 1.000000
vt 0.843750 0.500000
vt 0.843750 1.000000
vt 0.812500 0.500000
vt 0.812500 1.000000
vt 0.781250 0.500000
vt 0.781250 1.000000
vt 0.750000 0.500000
vt 0.750000 1.000000
vt 0.718750 0.500000
vt 0.718750 1.000000
vt 0.687500 0.500000
vt 0.687500 1.000000
vt 0.656250 0.500000
vt 0.656250 1.000000
vt 0.625000 0.500000
vt 0.625000 1.000000
vt 0.593750 0.500000
vt 0.593750 1.000000
vt 0.562500 0.500000
vt 0.562500 1.000000
vt 0.531250 0.500000
vt 0.531250 1.000000
vt 0.500000 0.500000
vt 0.500000 1.000000
vt 0.468750 0.500000
vt 0.468750 1.000000
vt 0.437500 0.500000
vt 0.437500 1.000000
vt 0.406250 0.500000
vt 0.406250 1.000000
vt 0.375000 0.500000
vt 0.375000 1.000000
vt 0.343750 0.500000
vt 0.343750 1.000000
vt 0.312500 0.500000
vt 0.312500 1.000000
vt 0.281250 0.500000
vt 0.281250 1.000000
vt 0.250000 0.500000
vt 0.250000 1.000000
vt 0.218750 0.500000
vt 0.218750 1.000000
vt 0.187500 0.500000
vt 0.187500 1.000000
vt 0.156250 0.500000
vt 0.156250 1.000000
vt 0.125000 0.500000
vt 0.125000 1.000000
vt 0.093750 0.500000
vt 0.093750 1.000000
vt 0.062500 0.500000
vt 0.062500 1.000000
vt 0.031250 0.500000
vt 0.031250 1.000000
vt 0.000000 0.500000
vt 0.796822 0.014612
vt 0.514612 0.203178
vt 0.703178 0.485388
vt 0.250000 0.490000
vt 0.250000 0.250000
vt 0.296822 0.485388
vt 0.341844 0.471731
vt 0.383337 0.449553
vt 0.419706 0.419706
vt 0.449553 0.383337
vt 0.471731 0.341844
vt 0.485388 0.296822
vt 0.490000 0.250000
vt 0.485388 0.203178
vt 0.471731 0.158156
vt 0.449553 0.116663
vt 0.419706 0.080294
vt 0.383337 0.050447
vt 0.341844 0.028269
vt 0.296822 0.014612
vt 0.250000 0.010000
vt 0.203178 0.014612
vt 0.158156 0.028269
vt 0.116663 0.050447
vt 0.080294 0.080294
vt 0.050447 0.116663
vt 0.028269 0.158156
vt 0.014612 0.203178
vt 0.010000 0.250000
vt 0.014612 0.296822
vt 0.028269 0.341844
vt 0.050447 0.383337
vt 0.080294 0.419706
vt 0.116663 0.449553
vt 0.158156 0.471731
vt 0.203178 0.485388
vt 0.000000 1.000000
vt 0.750000 0.490000
vt 0.796822 0.485388
vt 0.841844 0.471731
vt 0.883337 0.449553
vt 0.919706 0.419706
vt 0.949553 0.383337
vt 0.971731 0.341844
vt 0.985388 0.296822
vt 0.990000 0.250000
vt 0.985388 0.203178
vt 0.971731 0.158156
vt 0.949553 0.116663
vt 0.919706 0.080294
vt 0.883337 0.050447
vt 0.841844 0.028269
vt 0.750000 0.010000
vt 0.703178 0.014612
vt 0.658156 0.028269
vt 0.616663 0.050447
vt 0.580294 0.080294
vt 0.550447 0.116663
vt 0.528269 0.158156
vt 0.510000 0.250000
vt 0.514612 0.296822
vt 0.528269 0.341844
vt 0.550447 0.383337
vt 0.580294 0.419706
vt 0.616663 0.449553
vt 0.658156 0.471731
s 1
f 2/1/1 3/2/1 1/3/1
f 4/4/2 5/5/2 3/2/2
f 6/6/3 7/7/3 5/5/3
f 8/8/4 9/9/4 7/7/4
f 10/10/5 11/11/5 9/9/5
f 12/12/6 13/13/6 11/11/6
f 14/14/7 15/15/7 13/13/7
f 16/16/8 17/17/8 15/15/8
f 18/18/9 19/19/9 17/17/9
f 20/20/10 21/21/10 19/19/10
f 22/22/11 23/23/11 21/21/11
f 24/24/12 25/25/12 23/23/12
f 26/26/13 27/27/13 25/25/13
f 28/28/14 29/29/14 27/27/14
f 30/30/15 31/31/15 29/29/15
f 32/32/16 33/33/16 31/31/16
f 34/34/17 35/35/17 33/33/17
f 36/36/18 37/37/18 35/35/18
f 38/38/19 39/39/19 37/37/19
f 40/40/20 41/41/20 39/39/20
f 42/42/21 43/43/21 41/41/21
f 44/44/22 45/45/22 43/43/22
f 46/46/23 47/47/23 45/45/23
f 48/48/24 49/49/24 47/47/24
f 50/50/25 51/51/25 49/49/25
f 52/52/26 53/53/26 51/51/26
f 54/54/27 55/55/27 53/53/27
f 56/56/28 57/57/28 55/55/28
f 58/58/29 59/59/29 57/57/29
f 60/60/30 61/61/30 59/59/30
f 62/62/31 63/63/31 61/61/31
f 64/64/32 1/65/32 63/63/32
f 31/66/33 47/67/33 63/68/33
f 2/69/34 65/70/34 4/71/34
f 4/71/35 65/70/35 6/72/35
f 6/72/36 65/70/36 8/73/36
f 8/73/37 65/70/37 10/74/37
f 10/74/38 65/70/38 12/75/38
f 12/75/39 65/70/39 14/76/39
f 14/76/40 65/70/40 16/77/40
f 16/77/41 65/70/41 18/78/41
f 18/78/42 65/70/42 20/79/42
f 20/79/43 65/70/43 22/80/43
f 22/80/44 65/70/44 24/81/44
f 24/81/45 65/70/45 26/82/45
f 26/82/46 65/70/46 28/83/46
f 28/83/47 65/70/47 30/84/47
f 30/84/48 65/70/48 32/85/48
f 32/85/49 65/70/49 34/86/49
f 34/86/50 65/70/50 36/87/50
f 36/87/51 65/70/51 38/88/51
f 38/88/52 65/70/52 40/89/52
f 40/89/53 65/70/53 42/90/53
f 42/90/54 65/70/54 44/91/54
f 44/91/55 65/70/55 46/92/55
f 46/92/56 65/70/56 48/93/56
f 48/93/57 65/70/57 50/94/57
f 50/94/58 65/70/58 52/95/58
f 52/95/59 65/70/59 54/96/59
f 54/96/60 65/70/60 56/97/60
f 56/97/61 65/70/61 58/98/61
f 58/98/62 65/70/62 60/99/62
f 60/99/63 65/70/63 62/100/63
f 62/100/64 65/70/64 64/101/64
f 64/101/65 65/70/65 2/69/65
f 2/1/1 4/4/1 3/2/1
f 4/4/2 6/6/2 5/5/2
f 6/6/3 8/8/3 7/7/3
f 8/8/4 10/10/4 9/9/4
f 10/10/5 12/12/5 11/11/5
f 12/12/6 14/14/6 13/13/6
f 14/14/7 16/16/7 15/15/7
f 16/16/8 18/18/8 17/17/8
f 18/18/9 20/20/9 19/19/9
f 20/20/10 22/22/10 21/21/10
f 22/22/11 24/24/11 23/23/11
f 24/24/12 26/26/12 25/25/12
f 26/26/13 28/28/13 27/27/13
f 28/28/14 30/30/14 29/29/14
f 30/30/15 32/32/15 31/31/15
f 32/32/16 34/34/16 33/33/16
f 34/34/17 36/36/17 35/35/17
f 36/36/18 38/38/18 37/37/18
f 38/38/19 40/40/19 39/39/19
f 40/40/20 42/42/20 41/41/20
f 42/42/21 44/44/21 43/43/21
f 44/44/22 46/46/22 45/45/22
f 46/46/23 48/48/23 47/47/23
f 48/48/24 50/50/24 49/49/24
f 50/50/25 52/52/25 51/51/25
f 52/52/26 54/54/26 53/53/26
f 54/54/27 56/56/27 55/55/27
f 56/56/28 58/58/28 57/57/28
f 58/58/29 60/60/29 59/59/29
f 60/60/30 62/62/30 61/61/30
f 62/62/31 64/64/31 63/63/31
f 64/64/32 2/102/32 1/65/32
f 63/68/33 1/103/33 3/104/33
f 3/104/33 5/105/33 7/106/33
f 7/106/33 9/107/33 11/108/33
f 11/108/33 13/109/33 15/110/33
f 15/110/33 17/111/33 19/112/33
f 19/112/33 21/113/33 23/114/33
f 23/114/33 25/115/33 27/116/33
f 27/116/33 29/117/33 31/66/33
f 31/66/33 33/118/33 35/119/33
f 35/119/33 37/120/33 39/121/33
f 39/121/33 41/122/33 43/123/33
f 43/123/33 45/124/33 47/67/33
f 47/67/33 49/125/33 51/126/33
f 51/126/33 53/127/33 55/128/33
f 55/128/33 57/129/33 59/130/33
f 59/130/33 61/131/33 63/68/33
f 63/68/33 3/104/33 7/106/33
f 7/106/33 11/108/33 15/110/33
f 15/110/33 19/112/33 23/114/33
f 23/114/33 27/116/33 31/66/33
f 31/66/33 35/119/33 39/121/33
f 39/121/33 43/123/33 47/67/33
f 47/67/33 51/126/33 55/128/33
f 55/128/33 59/130/33 63/68/33
f 63/68/33 7/106/33 15/110/33
f 15/110/33 23/114/33 31/66/33
f 31/66/33 39/121/33 47/67/33
f 47/67/33 55/128/33 63/68/33
f 63/68/33 15/110/33 31/66/33
